
        <svg xmlns="http://www.w3.org/2000/svg" xmlns:xlink="http://www.w3.org/1999/xlink" version="1.1" width="3266.4852848759406" 
        height="3266.6518599898727" viewBox="0 0 3266.4852848759406 3266.6518599898727">
			
			<g transform="scale(13.332592999493635) translate(10, 10)">
				<defs id="SvgjsDefs2219"></defs><g id="SvgjsG2220" featureKey="JKiIdh-0" transform="matrix(2.500138820302946,0,0,2.500138820302946,-12.500694101514732,-12.500694101514732)" fill="#00fff2"><g xmlns="http://www.w3.org/2000/svg"><path d="M90.282,70.05c0.009-0.017,0.019-0.032,0.026-0.05h-0.001c2.995-6.026,4.688-12.813,4.688-20s-1.693-13.974-4.688-20h0.001   c-0.008-0.017-0.018-0.033-0.026-0.05c-0.392-0.786-0.809-1.558-1.244-2.317c-0.063-0.109-0.062-0.22-0.124-0.329   C81.499,14.641,67.627,5.923,52.627,5.073L49.996,5l-2.369,0.073C32.627,5.87,20.283,13.59,12.644,25l0,0   c-0.005,0.007-0.041,0.014-0.045,0.021c-0.497,0.743-0.982,1.504-1.436,2.278c-0.064,0.111-0.135,0.223-0.2,0.335   C7.18,34.224,5,41.855,5,50s2.174,15.776,5.957,22.365c0.064,0.113,0.127,0.225,0.191,0.336c0.453,0.773,0.921,1.535,1.417,2.278   c0.005,0.006,0.075,0.013,0.08,0.021l0,0c7.639,11.41,19.981,19.13,34.981,19.928L49.996,95l2.631-0.072   c15-0.851,28.872-9.568,36.287-22.231c0.063-0.109,0.094-0.22,0.157-0.329C89.507,71.607,89.891,70.836,90.282,70.05z    M65.717,71.978c-0.315,1.029-0.647,2.041-1.004,3.022c-0.471,1.301-0.986,2.545-1.528,3.75c-0.21,0.467-0.659,0.946-0.881,1.393   C59.433,85.883,56,89.631,52,90.832V79h-5v11.832c-3-1.201-6.938-4.948-9.809-10.689c-0.222-0.446-0.3-0.926-0.51-1.393   c-0.542-1.205-0.993-2.449-1.465-3.75c-0.356-0.981-0.656-1.992-0.971-3.02c-0.2-0.652-0.383-1.056-0.561-1.73   C32.273,64.902,31.483,59,31.308,53h6.865l0.642-3.214C38.231,49.233,37.711,48,37.218,48h-5.91c0.176-7,0.981-12.652,2.393-18   h1.895c1.006-1.923,2.378-3.624,4.033-5h-4.349c0.652-1.804,1.111-3.541,1.912-5.143C40.063,14.116,44,10.369,47,9.167v12.295   c2-0.127,1.648-0.212,2.5-0.212s1.5,0.085,2.5,0.212V9.167c4,1.201,7.433,4.95,10.304,10.69c0.801,1.602,1.758,3.338,2.409,5.143   h-4.348c1.655,1.376,3.027,3.077,4.033,5h1.896c1.411,5.348,2.217,11,2.393,18h-5.913c-0.49,0-1.013,1.233-1.597,1.786L61.82,53   h6.867c-0.176,6-0.981,11.902-2.393,17.25C66.117,70.925,65.917,71.327,65.717,71.978z M27.533,48H8.829   c0.38-7,2.188-12.758,5.107-18H29.84C28.52,35.322,27.704,41,27.533,48z M27.533,53c0.171,6,0.986,11.678,2.307,17H13.937   c-2.92-5.242-4.728-11-5.107-17H27.533z M72.46,53h18.703c-0.38,6-2.188,11.758-5.106,17H70.152C71.476,64.678,72.289,59,72.46,53z    M91.163,48H72.46c-0.171-7-0.984-12.678-2.308-18h15.904C88.976,35.242,90.783,41,91.163,48z M82.777,25H68.705   c-2.103-6.279-4.977-11.427-8.348-14.931C69.408,12.419,77.255,17.776,82.777,25z M39.635,10.069   c-3.37,3.504-6.245,8.651-8.347,14.931H17.216C22.738,17.776,30.586,12.419,39.635,10.069z M17.216,75h14.072   c2.102,6.279,4.977,11.427,8.347,14.931C30.586,87.58,22.738,82.225,17.216,75z M60.357,89.931   c3.371-3.504,6.245-8.651,8.348-14.931h14.072C77.255,82.225,69.408,87.58,60.357,89.931z"></path><path d="M62.496,37.5c0-6.904-5.596-12.5-12.5-12.5s-12.5,5.596-12.5,12.5c0,4.282,2.156,8.058,5.439,10.31L37.496,75h25   L57.06,47.81C60.341,45.558,62.496,41.782,62.496,37.5z M57.922,71H42.07l4.542-22.579l0.486-2.365l-2.041-1.369   c-2.387-1.637-3.812-4.319-3.812-7.202c0-4.824,3.926-8.742,8.75-8.742s8.75,3.93,8.75,8.754c0,2.883-1.424,5.583-3.809,7.22   l-2.041,1.401l0.486,2.302L57.922,71z"></path></g></g><g id="SvgjsG2221" featureKey="A7DQL5-0" transform="matrix(0.5,0,0,0.5,113,245)" fill="#00fff2"><path d=""></path></g>
			</g>
		</svg>
	