
        <svg xmlns="http://www.w3.org/2000/svg" xmlns:xlink="http://www.w3.org/1999/xlink" version="1.1" width="3171.4285714285716" 
        height="496.55583730683577" viewBox="0 0 3171.4285714285716 496.55583730683577">
			
			<g transform="scale(8.571428571428571) translate(10, 10)">
				<defs id="SvgjsDefs1242"></defs><g id="SvgjsG1243" featureKey="A7DQL5-0" transform="matrix(2.406821650440256,0,0,2.406821650440256,0,-10.204923246988928)" fill="#00fff2"><path d="M5.34 6.140000000000001 c0 0.08 0.23666 0.84334 0.71 2.29 s0.99 3.03 1.55 4.75 s1.3133 3.9934 2.26 6.82 l0.86 0 l-5.3 -15.76 l-0.16 0 l-5.26 15.76 l0.82 0 z M4.98 15.52 l-0.72 0 l1.2 4.48 l0.72 0 z M21.740000000000002 4.26 l0 10.64 c0 1.4 -0.37 2.48 -1.11 3.24 s-1.6233 1.1733 -2.65 1.24 l0 0.25 l0 0.07 l0 0.3 c1.28 -0.08 2.3066 -0.55334 3.08 -1.42 s1.16 -2.0934 1.16 -3.68 l0 -10.64 l-0.48 0 z M17.240000000000002 19.39998 c-1.04 -0.08 -1.9067 -0.5 -2.6 -1.26 s-1.04 -1.84 -1.04 -3.24 l0 -10.64 l-0.6 0 l0 10.64 c0 1.6 0.38334 2.83 1.15 3.69 s1.7967 1.33 3.09 1.41 l0 -0.29 l0 -0.31 z M30.68 4.5 l-0.000019531 -0.26 l-5.86 0 l0 0.64 l3.38 0 l0 15.12 l0.7 0 l0 -15.12 l1.8 0 c-0.02666 -0.21334 -0.03332 -0.34 -0.01998 -0.38 z M31.2 4.24 l0 0.64 l1.1 0 l0 -0.64 l-1.1 0 z M35.58 13.96 l0 -9.72 l-0.68 0 l0 15.76 l0.68 0 l0 -5.4 l0 -0.64 z M35.86 14.6 l5.84 0 l0 5.4 l0.68 0 l0 -11.62 l-0.68 0 l0 5.58 l-5.84 0 l0 0.64 z M45.54 14.16 l0 -9.36 l4.8 0 l0 -0.56 l-5.36 0 l0 9.92 l0.56 0 z M50.54 20 l0 -0.54 l-5 0 l0 -4.14 l0.8 0 l0 -0.54 l-1.36 0 l0 5.22 l5.56 0 z M59.92 4.58 l-0.000019531 11.56 c0 0.36 0.0066602 0.76 0.02 1.2 s0.02 0.66666 0.02 0.68 c-0.02666 -0.04 -0.12332 -0.25666 -0.28998 -0.65 s-0.33 -0.74334 -0.49 -1.05 l-0.28 -0.54 l-0.72 0 l2.2 4.22 l0.18 0 l0 -15.42 l-0.64 0 z M54.3 7.9399999999999995 l0.27998 0.54 l0.72 0 l-2.22 -4.24 l-0.14 0 l0 15.46 l0.62 0 l0 -11.6 c0 -0.33334 -0.0066602 -0.72334 -0.02 -1.17 s-0.02 -0.67666 -0.02 -0.69 c0.01334 0.04 0.10668 0.26 0.28002 0.66 s0.34 0.74666 0.5 1.04 z M69.02 4.5 l-0.000019531 -0.26 l-5.86 0 l0 0.64 l3.38 0 l0 15.12 l0.7 0 l0 -15.12 l1.8 0 c-0.02666 -0.21334 -0.03332 -0.34 -0.01998 -0.38 z M69.53999999999999 4.24 l0 0.64 l1.1 0 l0 -0.64 l-1.1 0 z M73.24 4.24 l0 15.76 l0.52 0 l0 -15.76 l-0.52 0 z M82.89999999999999 19.96 l0.039942 -0.63998 c-1.96 -0.13334 -3.52 -0.94668 -4.68 -2.44 c-1.1067 -1.3867 -1.66 -3.06 -1.66 -5.02 c0 -1.0267 0.16666 -1.9167 0.5 -2.67 s0.83334 -1.4833 1.5 -2.19 c1.3333 -1.4 3 -2.1 5 -2.1 c1.2133 0 2.3066 0.26 3.28 0.78 s1.7667 1.2467 2.38 2.18 l0.48 -0.38 c-0.66666 -1.0133 -1.5333 -1.8067 -2.6 -2.38 c-1.0133 -0.54666 -2.16 -0.81332 -3.44 -0.79998 c-1.08 0 -2.0934 0.18334 -3.04 0.55 s-1.78 0.93 -2.5 1.69 c-0.72 0.77334 -1.2633 1.5733 -1.63 2.4 s-0.55 1.8 -0.55 2.92 c0.01334 2.12 0.62 3.9334 1.82 5.44 c1.28 1.6133 2.98 2.5 5.1 2.66 z M84.11999999999999 19.98002 c1.0933 -0.06666 2.0934 -0.32664 3 -0.77998 c1.04 -0.53334 1.9133 -1.2867 2.62 -2.26 l-0.46 -0.4 c-0.64 0.88 -1.4467 1.5733 -2.42 2.08 c-0.84 0.42666 -1.76 0.66666 -2.76 0.72 z M97.47999999999999 6.140000000000001 c0 0.08 0.23666 0.84334 0.71 2.29 s0.99 3.03 1.55 4.75 s1.3133 3.9934 2.26 6.82 l0.86 0 l-5.3 -15.76 l-0.16 0 l-5.26 15.76 l0.82 0 z M97.11999999999999 15.52 l-0.72 0 l1.2 4.48 l0.72 0 z M110.99999999999999 4.5 l-0.000019531 -0.26 l-5.86 0 l0 0.64 l3.38 0 l0 15.12 l0.7 0 l0 -15.12 l1.8 0 c-0.02666 -0.21334 -0.03332 -0.34 -0.01998 -0.38 z M111.51999999999998 4.24 l0 0.64 l1.1 0 l0 -0.64 l-1.1 0 z M115.77999999999999 14.16 l0 -9.36 l4.8 0 l0 -0.56 l-5.36 0 l0 9.92 l0.56 0 z M120.77999999999999 20 l0 -0.54 l-5 0 l0 -4.14 l0.8 0 l0 -0.54 l-1.36 0 l0 5.22 l5.56 0 z M137.26 20 l0 -15.76 l-0.66 0 l-3.88 7.22 l-2.58 -4.8 l-0.58 0.32 l3.16 5.86 l3.9 -7.28 l0 14.44 l0.64 0 z M128.81999999999996 20 l0 -14.4 l0.16 0.3 l0.58 -0.3 l-0.74 -1.36 l-0.64 0 l0 15.76 l0.64 0 z M140.42 14.16 l0 -9.36 l4.8 0 l0 -0.56 l-5.36 0 l0 9.92 l0.56 0 z M145.42 20 l0 -0.54 l-5 0 l0 -4.14 l0.8 0 l0 -0.54 l-1.36 0 l0 5.22 l5.56 0 z"></path></g>
			</g>
		</svg>
	